<?xml version="1.0" standalone="no"?>
<!DOCTYPE svg PUBLIC "-//W3C//DTD SVG 20010904//EN"
 "http://www.w3.org/TR/2001/REC-SVG-20010904/DTD/svg10.dtd">
<svg version="1.0" xmlns="http://www.w3.org/2000/svg"
 width="152.000000pt" height="152.000000pt" viewBox="0 0 152.000000 152.000000"
 preserveAspectRatio="xMidYMid meet">
<metadata>
Created by potrace 1.11, written by Peter Selinger 2001-2013
</metadata>
<g transform="translate(0.000000,152.000000) scale(0.100000,-0.100000)"
fill="#000000" stroke="none">
<path d="M750 1328 l0 -189 -82 -38 c-46 -21 -111 -51 -145 -66 -35 -16 -63
-33 -63 -38 0 -6 -3 -8 -6 -4 -8 8 -53 -15 -124 -63 -99 -67 -139 -121 -135
-179 3 -37 32 -84 46 -76 5 4 9 3 8 -2 -4 -22 2 -35 15 -30 10 4 13 1 9 -9 -3
-7 0 -14 6 -14 7 0 17 -5 24 -10 7 -6 21 -18 32 -26 14 -11 16 -17 7 -20 -6
-3 -9 -11 -6 -16 4 -6 2 -8 -3 -5 -12 7 -103 -58 -103 -74 0 -6 5 -7 12 -3 7
4 8 3 4 -5 -4 -6 -11 -9 -16 -6 -4 3 -13 -2 -20 -10 -7 -8 -9 -15 -5 -15 4 0
3 -6 -2 -12 -11 -15 -15 -60 -5 -54 4 2 8 -7 8 -21 2 -28 80 -107 96 -97 6 4
8 2 5 -4 -4 -6 14 -23 41 -40 47 -29 48 -31 45 -71 -2 -23 1 -41 7 -41 6 0 10
-7 10 -15 0 -9 7 -18 15 -21 8 -4 13 -9 10 -14 -8 -13 39 -29 98 -33 47 -3 57
-1 52 11 -4 12 -3 13 9 3 21 -18 268 -21 261 -3 -2 6 0 12 5 12 6 0 10 -6 10
-12 0 -8 13 -13 30 -13 17 0 30 4 30 8 0 4 9 3 20 -3 16 -9 20 -8 20 7 0 15 2
15 16 -3 13 -16 15 -16 10 -1 -3 9 -1 17 4 17 6 0 10 -8 11 -17 0 -10 3 -13 5
-7 3 8 16 9 39 4 21 -5 35 -4 35 2 0 5 5 6 10 3 6 -4 18 -1 27 7 12 9 15 9 9
1 -4 -7 -4 -13 1 -14 66 -5 100 -2 111 11 8 8 11 10 8 3 -8 -14 11 -21 42 -15
18 4 20 7 10 13 -9 6 -9 9 -1 9 8 0 5 12 -8 35 -12 19 -25 32 -30 29 -5 -3 -8
0 -7 8 2 7 -3 12 -9 11 -7 -2 -12 1 -10 5 1 5 -11 20 -28 34 -39 33 -145 92
-145 81 0 -4 -4 -3 -8 3 -11 18 -133 74 -145 67 -6 -3 -7 -1 -3 5 4 7 2 12 -4
12 -6 0 -36 11 -66 25 -30 14 -58 25 -63 25 -23 0 -30 104 -8 117 18 11 80
104 80 120 0 7 3 13 7 13 4 0 7 6 8 13 2 24 2 112 -1 141 -2 33 -8 28 128 93
55 26 103 52 107 58 5 6 8 6 8 0 0 -6 3 -6 8 0 4 6 18 16 32 23 88 43 174 140
165 188 -2 10 -4 27 -4 38 -1 10 -30 47 -66 81 -39 38 -63 69 -59 77 3 7 25
29 49 48 44 35 94 114 81 127 -4 4 -133 8 -286 9 l-280 1 0 -189z m-380 -442
c0 -3 -4 -8 -10 -11 -5 -3 -10 -1 -10 4 0 6 5 11 10 11 6 0 10 -2 10 -4z m195
-134 c-3 -3 -11 0 -18 7 -9 10 -8 11 6 5 10 -3 15 -9 12 -12z m-135 -307 c14
-19 14 -19 -2 -6 -10 7 -18 18 -18 24 0 6 1 8 3 6 1 -2 9 -13 17 -24z m44 -23
c3 -5 -1 -9 -9 -9 -8 0 -12 4 -9 9 3 4 7 8 9 8 2 0 6 -4 9 -8z m-107 -27 c0
-8 -4 -12 -9 -9 -5 3 -6 10 -3 15 9 13 12 11 12 -6z m60 0 c0 -8 -4 -12 -9 -9
-5 3 -6 10 -3 15 9 13 12 11 12 -6z m159 -20 c-1 -8 -5 -17 -8 -21 -5 -4 -4
16 1 34 3 9 9 -1 7 -13z m-251 -14 c-9 -8 -36 -10 -30 -2 2 4 11 8 20 8 8 0
13 -3 10 -6z m-70 -21 c3 -5 1 -10 -4 -10 -6 0 -11 5 -11 10 0 6 2 10 4 10 3
0 8 -4 11 -10z m41 -42 c3 -4 -1 -5 -10 -4 -8 1 -18 5 -22 8 -3 4 1 5 10 4 8
-1 18 -5 22 -8z m615 -31 c-10 -9 -11 -8 -5 6 3 10 9 15 12 12 3 -3 0 -11 -7
-18z m-574 -32 c0 -8 -4 -12 -9 -9 -5 3 -6 10 -3 15 9 13 12 11 12 -6z m63 5
c0 -5 -5 -10 -11 -10 -5 0 -7 5 -4 10 3 6 8 10 11 10 2 0 4 -4 4 -10z m424 2
c3 -5 -1 -9 -9 -9 -8 0 -12 4 -9 9 3 4 7 8 9 8 2 0 6 -4 9 -8z m52 -4 c3 -4
-1 -5 -10 -4 -8 1 -18 5 -22 8 -3 4 1 5 10 4 8 -1 18 -5 22 -8z m44 6 c0 -8
-19 -13 -24 -6 -3 5 1 9 9 9 8 0 15 -2 15 -3z m36 -18 c1 -7 -4 -13 -12 -13
-9 0 -11 4 -4 12 5 7 8 15 5 18 -3 4 -2 5 2 2 4 -3 8 -11 9 -19z m48 16 c3 -5
-1 -9 -9 -9 -8 0 -12 4 -9 9 3 4 7 8 9 8 2 0 6 -4 9 -8z m32 -34 c5 4 5 3 1
-2 -12 -15 -34 -15 -34 0 0 9 4 11 12 4 7 -5 16 -6 21 -2z m-196 -28 c0 -5 -5
-10 -11 -10 -5 0 -7 5 -4 10 3 6 8 10 11 10 2 0 4 -4 4 -10z m300 0 c0 -5 -5
-10 -11 -10 -5 0 -7 5 -4 10 3 6 8 10 11 10 2 0 4 -4 4 -10z m-103 -14 c0 -8
-8 -13 -18 -11 -10 2 -21 0 -24 -6 -4 -5 -11 -9 -18 -9 -6 0 -2 6 8 14 11 8
23 12 27 10 4 -2 9 0 13 6 8 14 12 13 12 -4z m-143 -12 c3 -8 2 -12 -4 -9 -6
3 -10 10 -10 16 0 14 7 11 14 -7z m260 -2 c2 -4 -4 -8 -14 -8 -10 0 -16 4 -14
8 3 4 9 8 14 8 5 0 11 -4 14 -8z m-358 -18 c-1 -8 -6 -17 -12 -21 -5 -4 -6 -4
-2 1 4 5 3 14 -2 21 -7 8 -5 12 4 12 8 0 13 -6 12 -13z m-342 -20 c3 -8 2 -12
-4 -9 -6 3 -10 10 -10 16 0 14 7 11 14 -7z m376 12 c0 -2 -8 -10 -17 -17 -16
-13 -17 -12 -4 4 13 16 21 21 21 13z m21 -19 c-10 -9 -11 -8 -5 6 3 10 9 15
12 12 3 -3 0 -11 -7 -18z m70 10 c-6 -8 -9 -16 -6 -19 3 -2 -2 -5 -10 -5 -13
0 -13 3 2 19 19 21 31 25 14 5z m105 -15 c-17 -16 -18 -16 -5 5 7 12 15 20 18
17 3 -2 -3 -12 -13 -22z m65 11 c13 -16 12 -17 -3 -4 -10 7 -18 15 -18 17 0 8
8 3 21 -13z m64 -1 c-3 -3 -11 0 -18 7 -9 10 -8 11 6 5 10 -3 15 -9 12 -12z
m56 1 c13 -16 12 -17 -3 -4 -10 7 -18 15 -18 17 0 8 8 3 21 -13z m-251 3 c0
-2 -7 -9 -15 -16 -13 -11 -14 -10 -9 4 5 14 24 23 24 12z m15 -26 c-3 -5 -12
-10 -18 -10 -7 0 -6 4 3 10 19 12 23 12 15 0z m75 -5 c-7 -8 -17 -15 -23 -15
-6 0 -2 7 9 15 25 19 30 19 14 0z m63 0 c-3 -9 -8 -14 -10 -11 -3 3 -2 9 2 15
9 16 15 13 8 -4z m-653 -1 c0 -8 -19 -13 -24 -6 -3 5 1 9 9 9 8 0 15 -2 15 -3z
m40 0 c0 -8 -19 -13 -24 -6 -3 5 1 9 9 9 8 0 15 -2 15 -3z m660 0 c0 -8 -19
-13 -24 -6 -3 5 1 9 9 9 8 0 15 -2 15 -3z m-276 -39 c16 -25 16 -25 -2 -14
-10 6 -19 18 -19 25 0 19 2 18 21 -11z m40 -1 c7 -19 2 -18 -19 6 -16 17 -16
20 -3 15 9 -4 19 -13 22 -21z m160 18 c2 -4 -4 -8 -14 -8 -10 0 -16 4 -14 8 7
10 21 10 28 0z m-534 -16 c-7 -7 -13 -7 -20 0 -6 6 -3 10 10 10 13 0 16 -4 10
-10z m579 11 c-2 -1 -13 -9 -24 -17 -19 -14 -19 -14 -6 3 7 9 18 17 24 17 6 0
8 -1 6 -3z m48 -18 c2 -16 0 -17 -18 -1 -10 9 -19 17 -19 17 0 0 8 1 18 1 10
0 19 -8 19 -17z"/>
</g>
</svg>
